<svg xmlns="http://www.w3.org/2000/svg" viewBox="0 0 216 30.39"><defs><style>.cls-1{fill-rule:evenodd;}</style></defs><g id="Layer_2" data-name="Layer 2"><g id="Layer_1-2" data-name="Layer 1"><path d="M16,7.65a7.43,7.43,0,0,0-1.54,0L13.66.08c.51,0,1-.08,1.56-.08s1,0,1.54.08L16,7.65Z"/><path d="M12.87,8a7,7,0,0,0-.72.27,7.5,7.5,0,0,0-.7.33L7.77,2c.45-.24.92-.47,1.4-.68s1-.38,1.45-.53L12.87,8Z"/><path d="M10.32,9.39a6.92,6.92,0,0,0-.56.53,7,7,0,0,0-.51.58l-6-4.7c.32-.4.66-.79,1-1.17a13.79,13.79,0,0,1,1.12-1l4.91,5.81Z"/><path d="M8.48,11.69a7.7,7.7,0,0,0-.33.71,6.84,6.84,0,0,0-.25.72L.58,11c.15-.49.32-1,.51-1.47s.42-1,.65-1.4l6.74,3.54Z"/><path d="M7.65,14.51a7.43,7.43,0,0,0,0,1.54l-7.57.79c0-.51-.08-1-.08-1.56s0-1,.08-1.54l7.57.77Z"/><path d="M8,17.63a7,7,0,0,0,.27.72,7.5,7.5,0,0,0,.33.7L2,22.73c-.24-.45-.47-.92-.68-1.4s-.38-1-.53-1.45L8,17.63Z"/><path d="M9.39,20.17a7,7,0,0,0,.52.57c.19.18.39.35.59.51l-4.7,6c-.4-.32-.79-.66-1.17-1a13.79,13.79,0,0,1-1-1.12l5.81-4.92Z"/><path d="M11.69,22a7.7,7.7,0,0,0,.71.33,6.84,6.84,0,0,0,.72.25L11,29.91a12.77,12.77,0,0,1-1.47-.51,14.91,14.91,0,0,1-1.4-.64L11.69,22Z"/><path d="M14.42,22.75c.26,0,.51,0,.78,0s.51,0,.77,0l.78,7.56a13.3,13.3,0,0,1-1.55.08c-.52,0-1,0-1.54-.07l.76-7.57Z"/><path d="M17.54,22.38a6.34,6.34,0,0,0,.73-.26c.24-.11.47-.22.69-.34l3.68,6.66a15.11,15.11,0,0,1-1.4.68c-.48.2-1,.38-1.45.53l-2.25-7.27Z"/><path d="M20.09,21l.56-.53c.19-.19.35-.39.51-.58l6,4.69q-.48.6-1,1.17A14.05,14.05,0,0,1,25,26.82L20.09,21Z"/><path d="M21.94,18.7a6.29,6.29,0,0,0,.32-.7,7.09,7.09,0,0,0,.26-.73l7.31,2.11a14.25,14.25,0,0,1-.51,1.47c-.2.48-.41.94-.65,1.4L21.94,18.7Z"/><path d="M22.79,16c0-.25,0-.51,0-.77s0-.52,0-.77l7.57-.79c.05.51.08,1,.08,1.56s0,1-.08,1.54L22.79,16Z"/><path d="M22.43,12.87c-.08-.24-.17-.48-.27-.73a6.3,6.3,0,0,0-.34-.69l6.66-3.68a13.91,13.91,0,0,1,.68,1.4,13.3,13.3,0,0,1,.53,1.45l-7.26,2.25Z"/><path d="M21.05,10.33a7.15,7.15,0,0,0-.53-.57c-.19-.18-.38-.35-.58-.51l4.69-6a14.26,14.26,0,0,1,1.18,1c.37.36.72.73,1.05,1.12l-5.81,4.92Z"/><path d="M18.74,8.47,18,8.15a7,7,0,0,0-.73-.25L19.42.58c.49.15,1,.32,1.47.52s.95.41,1.4.64L18.74,8.47Z"/><polygon points="96.25 28.21 103.21 28.21 103.21 7.8 113.15 7.8 113.15 2.36 86.29 2.36 86.29 7.8 96.25 7.8 96.25 28.21 96.25 28.21"/><path class="cls-1" d="M142.85,15c0,7.7,6,13.86,16.12,13.86S175.08,22.71,175.08,15c0-7.91-6-13.48-16.12-13.48S142.85,7.1,142.85,15Zm8.06.55c0-4.67,1.73-8.78,8-8.84s8.87,4.05,8.52,8.71c-.34,4.32-2.27,8-8.52,8-6,0-8-3.72-8-7.91Z"/><polygon points="177.17 28.21 184.16 28.21 184.16 11.7 184.25 11.7 197.65 28.21 205.71 28.21 205.71 2.32 198.64 2.36 198.64 19.17 198.55 19.17 185.13 2.36 177.17 2.36 177.17 28.21 177.17 28.21"/><polygon points="34.01 28.23 55.92 28.23 55.92 22.73 41 22.73 41 2.32 34.01 2.32 34.01 28.23 34.01 28.23"/><path d="M84.71,2.32h-7V18.15c0,4-2.24,5.53-7.38,5.53S63,22.13,63,18.15V2.32H56.08V18.15c0,7.24,5.47,10.72,14.29,10.72s14.34-3.51,14.34-10.72V2.32Z"/><path class="cls-1" d="M114.66,28.21h6.46V18.14h10.46c2.72,0,3.21,1.28,3.65,4,.55,3.4,1,6.15,2.94,6h5.48c-1.58.32-2.05-4.2-2.38-6.33-.89-5.71-1.86-6-4.52-6.09l0-.1c3.36-1.06,5.49-3.65,5.4-6.78-.1-4.16-3-7-9.78-6.59H114.66V28.21ZM121,7.63h8.66c3.22,0,5.46.46,5.46,3s-2.24,3.05-5.46,3.05H121V7.63Z"/><path class="cls-1" d="M216,24.56a3.59,3.59,0,1,0-3.59,3.59A3.6,3.6,0,0,0,216,24.56Zm-.42,0a3.18,3.18,0,1,1-3.18-3.18,3.16,3.16,0,0,1,3.18,3.18Zm-4.51,1.87h.51v-1.7h1.3c.82,0,.59.73.67,1.2l.09.5h.6c-.22-.34-.14-.43-.19-.95-.06-.69-.07-.75-.48-1a1,1,0,0,0,.53-1c-.06-.89-.65-1-1.26-1h-1.77v4Zm1.77-3.51c.32,0,.81.08.73.76,0,.51-.38.61-.73.61h-1.26V22.92Z"/><path d="M211.07,26.43v-4h1.77c.61,0,1.2.12,1.26,1a1,1,0,0,1-.53,1c.41.26.42.32.48,1,0,.52,0,.61.19.95h-.6l-.09-.5c-.08-.47.15-1.2-.67-1.2h-1.3v1.7Zm1.77-3.51h-1.26v1.37h1.26c.35,0,.68-.1.73-.61.08-.68-.41-.76-.73-.76Z"/></g></g></svg>