<?xml version="1.0" encoding="utf-8"?>
<!-- Generator: Adobe Illustrator 18.1.1, SVG Export Plug-In . SVG Version: 6.00 Build 0)  -->
<svg version="1.1" id="Layer_1" xmlns="http://www.w3.org/2000/svg" xmlns:xlink="http://www.w3.org/1999/xlink" x="0px" y="0px"
	 viewBox="0 550.7 792 120" enable-background="new 0 550.7 792 120" xml:space="preserve">
<path fill="#696057" d="M673.5,559.8v8.9h42.9v96.8h33v-97.1H792v-8.7H673.5z M610.1,662.5c1.8,2,3.1,2.8,6.1,2.8h32.2V559.8h-9.7
	l0.3,87.1h-0.5l-64.1-84.3c-1.8-2-3.1-2.8-6.1-2.8h-40.9v2.3l4.9,0.5c2.3,0.3,4.3,2.3,4.3,5.9v97.1h10l-0.3-88.1h0.5L610.1,662.5z
	 M467,661.4c1,2.8,2.8,3.8,5.4,3.8H512V663c-5.9-0.8-7.9-2-11.5-10.5l-37.6-89.4c-1-2.6-2.8-3.8-5.9-3.8h-41.6v2.3
	c7.2,1,8.7,2,8.7,4.6c0,1.3-0.5,2.8-1.3,5.1L382.5,665h10.5l11.2-26.6h53.9L467,661.4z M454.5,630H408l23.5-55.2h0.5L454.5,630z
	 M333.7,665.5l45.7-105.8h-10.5l-38.6,90.7h-0.8l-35-86.9c-1-2.8-2.8-3.8-5.4-3.8h-39.6v2.3c6.1,0.5,7.9,2,11.5,10.5l37.6,89.4
	c1,2.6,2.8,3.8,5.9,3.8h29.1V665.5z M209.2,661.4c1,2.8,2.8,3.8,5.4,3.8h39.6V663c-5.9-0.8-7.9-2-11.5-10.5l-37.6-89.4
	c-1-2.6-2.8-3.8-5.9-3.8h-41.6v2.3c7.2,1,8.7,2,8.7,4.6c0,1.3-0.5,2.8-1.3,5.1l-40.6,94.3h10.5l11.5-26.8h53.9L209.2,661.4z
	 M196.5,630h-46.2l23.5-55.2h0.5L196.5,630z M54.9,668.1c36.3,0,55.2-17.6,55.2-36c0-16.4-13.3-26.3-46.8-33.2
	c-26.6-5.4-31.9-12-31.9-19.9c0-8.9,8.4-15.8,23.2-15.8c18.4,0,33.2,8.2,45.2,23.8h1.3v-11.8c0-3.1-0.5-4.6-3.3-6.4
	c-11.8-7.2-25.5-12.8-43.9-12.8c-31.4,0.3-50.3,16.4-50.3,35.8c0,18.9,16.9,26.8,50.1,33.7c21.5,4.3,28.1,10.7,28.1,20.2
	c0,9.7-9.5,15.3-26.3,15.3c-17.9,0-37.6-7.9-52.4-27.6H2l1.3,14.6c0.3,3.1,1.3,4.6,3.6,6.1C20.7,662.7,37,668.1,54.9,668.1"/>
</svg>
