<svg xmlns="http://www.w3.org/2000/svg" viewBox="0 0 221.796 48.566">
    <g id="Group_214" data-name="Group 214" transform="translate(-265.226 -1600.962)">
        <g id="Group_213" data-name="Group 213" transform="translate(265.226 1600.962)">
            <g id="Group_23" data-name="Group 23" transform="translate(0 5.903)">
                <g id="Group_22" data-name="Group 22">
                    <path id="Path_26" data-name="Path 26" d="M64.433,285.725a21.332,21.332,0,1,1,21.334-21.334,21.356,21.356,0,0,1-21.334,21.334Zm0-42.172a20.838,20.838,0,1,0,20.838,20.838,20.858,20.858,0,0,0-20.838-20.838Z" transform="translate(-43.104 -243.062)" fill="#5d5d5e"/>
                </g>
                <path id="Path_27" data-name="Path 27" d="M63.19,243.429a19.719,19.719,0,1,0,19.723,19.719A19.721,19.721,0,0,0,63.19,243.429Zm15.2,26.715a8.22,8.22,0,0,1-5.5,2.5,7.762,7.762,0,0,1-4.63-1.2,6.887,6.887,0,0,1-1.514-1.224c-.184-.2-.443-.527-.768-.944a.877.877,0,0,1,.048-1.053c.43-.711.878-.426.878-.426a8.524,8.524,0,0,0,1.382.786,9.38,9.38,0,0,0,4.305.7,8.179,8.179,0,0,0,5.253-1.927,5.412,5.412,0,0,0,1.729-4.512,6.133,6.133,0,0,0-1.83-4.2,5.157,5.157,0,0,0-4.055-1.514,8.582,8.582,0,0,0-5.618,2.831,23.827,23.827,0,0,0-3.594,5.2l-.689,1.172c-.123.224-.246.439-.369.65v-.009a14.832,14.832,0,0,1-3.138,3.568,8.475,8.475,0,0,1-8.163,1.672,9.422,9.422,0,0,1-2.875-1.426,9.012,9.012,0,0,1-2.7-3.173,10.236,10.236,0,0,1-1.141-4.2,10.086,10.086,0,0,1,.557-3.989,8.75,8.75,0,0,1,2.058-3.257,8.224,8.224,0,0,1,5.5-2.5,7.806,7.806,0,0,1,4.635,1.2,6.992,6.992,0,0,1,1.514,1.224c.18.206.443.527.764.943a.881.881,0,0,1-.044,1.053c-.43.707-.882.426-.882.426a7.706,7.706,0,0,0-1.378-.781,9.276,9.276,0,0,0-4.305-.7,8.164,8.164,0,0,0-5.253,1.927,5.414,5.414,0,0,0-1.734,4.512,6.154,6.154,0,0,0,1.835,4.2,5.148,5.148,0,0,0,4.051,1.514,8.562,8.562,0,0,0,5.622-2.831,24.158,24.158,0,0,0,3.594-5.192l.689-1.172c.118-.228.246-.443.369-.654v.009a14.816,14.816,0,0,1,3.134-3.568,8.484,8.484,0,0,1,8.168-1.672,9.383,9.383,0,0,1,2.875,1.431,8.973,8.973,0,0,1,2.7,3.173,10.2,10.2,0,0,1,1.141,4.2,9.988,9.988,0,0,1-.562,3.985A8.567,8.567,0,0,1,78.388,270.144Z" transform="translate(-41.86 -241.818)" fill="#5d5d5e"/>
            </g>
            <g id="Group_27" data-name="Group 27" transform="translate(57.651)">
                <g id="Group_26" data-name="Group 26">
                    <g id="Group_25" data-name="Group 25">
                        <g id="Group_24" data-name="Group 24">
                            <path id="Path_28" data-name="Path 28" d="M64.39,261.765c-3.831-1.975-7.413-4.27-7.413-9.094,0-4.652,4.863-8.321,10.1-8.321a10.806,10.806,0,0,1,8.04,3.221l-2.958,2.941a7.622,7.622,0,0,0-5.376-2.409c-2.783,0-5.337,1.909-5.337,4.569,0,2.392,2.054,3.805,5.043,5.363l2.093,1.067c3.577,1.874,7.43,4.305,7.43,9.111,0,5.1-4.45,9.4-10.419,9.4a11.916,11.916,0,0,1-9.352-4.3l3.45-3.2a7.654,7.654,0,0,0,6.5,3.6,5.253,5.253,0,0,0,5.372-5.24c0-2.554-1.791-3.906-5.073-5.591Z" transform="translate(-56.24 -232.794)" fill="#5d5d5e"/>
                            <path id="Path_29" data-name="Path 29" d="M68.668,273.443h12.6v4.125H64.13v-33.21H80.658v4.117H68.668v9.62H78.806v4.112H68.668Z" transform="translate(-29.503 -232.764)" fill="#5d5d5e"/>
                            <path id="Path_30" data-name="Path 30" d="M72.582,241.717l-3.9,7.628H65.823l2.225-7.628Z" transform="translate(-23.765 -241.717)" fill="#5d5d5e"/>
                            <path id="Path_31" data-name="Path 31" d="M84.95,264.938h3.357l11.3,12.631h6.311L93.3,264.069c3.7-1.124,7.483-4.608,7.527-9.4.07-5.863-5.82-10.309-12.319-10.309H80.4v33.21H84.95Zm0-16.462H88.5c4.112,0,7.658,2.607,7.658,6.193s-3.656,6.2-7.658,6.2H84.95Z" transform="translate(25.643 -232.764)" fill="#5d5d5e"/>
                            <path id="Path_32" data-name="Path 32" d="M92.361,270.314h14.479l2.8,7.255h5.28L101.2,244.359H98.009L87.362,269.941l3.388,4.13Zm7.255-18.894,5.71,14.808H93.906Z" transform="translate(49.226 -232.764)" fill="#5d5d5e"/>
                            <path id="Path_33" data-name="Path 33" d="M92.785,246.426V263.2c0,6.026-2.941,10.248-8.457,10.248-5.539,0-8.479-4.222-8.479-10.248v-16.77l-4.556-2.067V263.2c0,8.242,4.977,14.373,13.035,14.373s13.017-6.131,13.017-14.373V244.359Z" transform="translate(-5.229 -232.764)" fill="#5d5d5e"/>
                        </g>
                    </g>
                </g>
            </g>
            <g id="Group_28" data-name="Group 28" transform="translate(218.193 11.595)">
                <path id="Path_34" data-name="Path 34" d="M96.423,246.115a1.8,1.8,0,1,1-1.786-1.756A1.764,1.764,0,0,1,96.423,246.115Zm-3.156,0a1.368,1.368,0,0,0,1.369,1.4,1.348,1.348,0,0,0,1.339-1.391,1.355,1.355,0,1,0-2.708-.013Zm1.08.908h-.408v-1.751a4.619,4.619,0,0,1,.676-.057.951.951,0,0,1,.6.141.441.441,0,0,1,.18.373.46.46,0,0,1-.364.421v.018c.171.057.259.193.312.43a1.535,1.535,0,0,0,.127.426h-.426a1.218,1.218,0,0,1-.14-.426c-.031-.184-.14-.268-.364-.268h-.193Zm.013-.983h.189c.228,0,.408-.075.408-.255,0-.162-.118-.268-.373-.268a.8.8,0,0,0-.224.022Z" transform="translate(-92.82 -244.359)" fill="#5d5d5e"/>
            </g>
        </g>
    </g>
</svg>
